<svg xmlns="http://www.w3.org/2000/svg" width="1078" height="220" viewBox="0 0 1078 220">
  <g fill="none" fill-rule="evenodd">
    <path fill="#C8252C" d="M222.149591,27.5 C241.916673,27.5 262.922438,42.9667372 262.922438,71.6328635 L262.922438,71.9389815 C262.922438,100.708877 241.916673,116.227498 222.149591,116.227498 C210.535005,116.227498 200.729205,111.656483 192.918771,102.618222 L192.918771,139.699997 L176.97139,139.699997 L176.97139,29.2329387 L192.918771,29.2329387 L192.918771,41.7785846 C200.895053,32.1747837 210.509091,27.5 222.149591,27.5 Z M431.610856,29.3006092 C441.628303,29.3006092 452.766727,32.7233257 461.423717,38.4363548 L462.926844,39.4412358 L455.579357,51.6273309 L453.948847,50.5765416 C446.637027,45.8530908 438.382569,43.1445029 431.300039,43.1445029 C423.188251,43.1445029 417.726041,47.0518067 417.726041,52.8668541 L417.726041,53.1780102 C417.726041,59.2940118 426.918043,62.0944163 436.655247,65.063151 L436.960967,65.1549676 C447.712145,68.3787483 463.97139,73.2603276 463.97139,89.8638183 L463.97139,90.1902771 C463.97139,105.671566 451.768039,116.072339 433.628612,116.072339 C421.746268,116.072339 408.61047,111.399898 399.342037,103.876042 L397.97139,102.764042 L406.139227,91.2257636 L407.693307,92.3887731 C416.263677,98.8261327 425.445488,102.233546 434.245149,102.233546 C443.014237,102.233546 448.904455,97.8926645 448.904455,91.4246995 L448.904455,91.1084425 C448.904455,84.5537618 440.853811,81.7737611 430.331924,78.8407327 C418.59225,75.49453 402.511342,70.9292077 402.511342,54.4124325 L402.511342,54.1063774 C402.511342,39.492245 414.480307,29.3006092 431.610856,29.3006092 Z M500.610856,29.3006092 C510.613017,29.3006092 521.766727,32.7233257 530.423717,38.4363548 L531.926844,39.4412358 L524.579357,51.6273309 L522.948847,50.5765416 C515.631932,45.8530908 507.372378,43.1445029 500.300039,43.1445029 C492.17806,43.1445029 486.726041,47.0518067 486.726041,52.8668541 L486.726041,53.1780102 C486.726041,59.2940118 495.918043,62.0944163 505.650151,65.063151 L505.960967,65.1549676 C516.707049,68.3787483 532.97139,73.2603276 532.97139,89.8638183 L532.97139,90.1902771 C532.97139,105.671566 520.768039,116.072339 502.628612,116.072339 C490.746268,116.072339 477.605374,111.399898 468.331847,103.876042 L466.97139,102.764042 L475.134132,91.2257636 L476.683117,92.3887731 C485.258582,98.8261327 494.445488,102.233546 503.245149,102.233546 C512.009142,102.233546 517.904455,97.8926645 517.904455,91.4246995 L517.904455,91.1084425 C517.904455,84.5537618 509.853811,81.7737611 499.331924,78.8407327 C487.587154,75.49453 471.506247,70.9292077 471.506247,54.4124325 L471.506247,54.1063774 C471.506247,39.492245 483.480307,29.3006092 500.610856,29.3006092 Z M85.2009107,2.13162821e-14 L85.2009107,15.4417429 L16.6062396,15.4417429 L16.6062396,49.8241608 L77.9667713,49.8241608 L77.9667713,65.2659037 L16.6062396,65.2659037 L16.6062396,100.598258 L86,100.598258 L86,116.040001 L0,116.040001 L0,2.13162821e-14 L85.2009107,2.13162821e-14 Z M683.474003,-4.26325641e-14 C709.900678,-4.26325641e-14 726.97139,14.7236975 726.97139,37.5216807 L726.97139,37.8383193 C726.97139,64.5362353 704.093709,76.4787899 681.409419,76.4787899 L656.367845,76.4787899 L656.367845,116.037513 L639.97139,116.037513 L639.97139,-4.26325641e-14 L683.474003,-4.26325641e-14 Z M744.746337,-4.26325641e-14 L812.42242,86.1784874 L812.42242,-4.26325641e-14 L828.642961,-4.26325641e-14 L828.642961,116.037513 L815.669691,116.037513 L746.232912,27.7744874 L746.232912,116.037513 L730.017643,116.037513 L730.017643,-4.26325641e-14 L744.746337,-4.26325641e-14 Z M108.73167,29 L131.633065,59.8740416 L154.529327,29 L172.749845,29 L140.733059,71.4676889 L173.97139,116 L155.304341,116 L131.314847,83.3789704 L107.17651,116 L88.9713898,116 L122.06601,71.7747353 L90.2339947,29 L108.73167,29 Z M540.65139,0.08 L579.051392,95.120003 L617.691393,0.08 L637.131393,0.08 L588.891392,116.000004 L569.211391,116.000004 L520.97139,0.08 L540.65139,0.08 Z M312.572653,27.8000031 C313.073402,27.8000031 313.57415,27.8105577 314.08017,27.8316669 L315.951389,27.9055493 L315.951389,45.0357005 L313.041775,45.0357005 C294.303229,45.0357005 282.19565,59.1630619 282.19565,81.0375157 L282.19565,115.989146 L265.97139,115.989146 L265.97139,29.2618182 L282.19565,29.2618182 L282.19565,45.1359694 C289.358993,34.1591627 300.301672,27.8000031 312.572653,27.8000031 Z M356.008805,28.9578483 C379.320446,28.9578483 394.97139,46.6814902 394.97139,73.0537822 L394.971017,73.509762 C394.968596,74.5205788 394.950434,75.697102 394.814221,77.3730317 L394.672263,79.0885503 L331.98737,79.0885503 C334.213079,92.7771707 344.383404,101.842012 357.859337,101.842012 C367.106931,101.842012 374.65102,98.4515784 381.581645,91.1783885 L382.838993,89.8536833 L392.978898,98.9439018 L391.72155,100.344739 C382.08357,111.109872 371.538069,115.921445 357.55007,115.921445 C333.842972,115.921445 315.97139,97.2182322 315.97139,72.4396468 C315.97139,47.655986 333.183879,28.9578483 356.008805,28.9578483 Z M219.952097,42.2144135 C206.720486,42.2144135 192.441956,53.4629496 192.441956,71.6328635 L192.441956,71.9389815 C192.441956,90.4617093 206.430251,101.523462 219.952097,101.523462 C235.676619,101.523462 246.658907,89.4240214 246.658907,72.1101999 L246.658907,71.7885167 C246.658907,54.6407253 235.422663,42.2144135 219.952097,42.2144135 Z M355.699538,42.7429031 C343.800359,42.7429031 334.289128,52.1071985 332.00258,65.7907433 L378.98076,65.7907433 C377.277255,54.2845875 370.4024,42.7429031 355.699538,42.7429031 Z M682.522726,15.5997311 L656.367845,15.5997311 L656.367845,61.0373782 L681.890284,61.0373782 C699.211882,61.0373782 710.412904,52.124 710.412904,38.3185546 L710.412904,38.001916 C710.412904,23.7690084 700.246788,15.5997311 682.522726,15.5997311 Z" transform="translate(249.029 52)"/>
    <path fill="#C8252C" d="M110,220 C170.751322,220 220,170.751322 220,110 C220,49.2486775 170.751322,0 110,0 C49.2486775,0 0,49.2486775 0,110 C0,170.751322 49.2486775,220 110,220 Z"/>
    <polygon fill="#FFF" points="155.683 52.091 127.558 137.562 106.296 75.041 38.839 75.041 38.839 89.579 86.67 89.579 91.417 102.936 50.916 102.936 50.916 117.504 96.598 117.504 100.483 128.431 37.849 128.431 37.849 143.007 105.661 143.007 114.396 167.58 139.151 167.58 180.285 52.091"/>
  </g>
</svg>
